<svg width="2440" height="2170" viewBox="0 0 2440 2170" fill="none" xmlns="http://www.w3.org/2000/svg">
<path fill-rule="evenodd" clip-rule="evenodd" d="M1268.01 0C1268.01 0 1268.15 10.4895 1268.38 28.2849C1268.45 9.86629 1268.01 0 1268.01 0ZM1772.68 926.114C1741.64 920.674 1512.15 917.344 1285.76 915.365C1272.56 898.092 1257.55 873.937 1262.11 857.816C1267.18 850.855 1268.93 828.817 1269.24 799.234C1370.12 801.689 1669.68 809.258 1736.36 814.138C1787.33 817.866 1814.68 840.881 1837.11 859.754C1850.1 870.685 1861.44 880.226 1874.76 883.825C1911.08 893.643 1896.36 851.433 1896.36 851.433C1894.77 844.111 1872.15 833.125 1847.42 821.113L1847.42 821.112C1830.25 812.771 1812.06 803.934 1799.18 795.487C1767.77 774.876 1349.63 761.131 1278.96 767.022C1275.38 767.322 1272.22 767.701 1269.13 768.095C1268.9 751.434 1268.47 733.535 1268.03 715.188L1267.97 712.554C1394.36 668.941 1515.32 625.018 1613.65 589.311L1613.65 589.31C1737.92 544.186 1826.05 512.184 1843.35 510.509C1904.21 504.619 2128 773.565 2128 773.565C2128 742.484 1956.56 568.419 1900.28 511.493C1844.01 454.563 1791 488.588 1791 488.588L1703.64 521.307C1547.27 582.017 1400.48 630.418 1267.07 669.147C1266.55 636.515 1266.58 604.844 1268.4 579.055C1273.93 500.688 1269.72 133.191 1268.37 28.2248C1268.2 75.6228 1264.55 181.535 1240.52 335.63C1224.9 435.78 1216.16 570.248 1211.29 685.009C806.409 797.593 539.855 817.735 539.855 817.735L479 907.057L541.817 905.094C680.57 901.512 950.757 820.37 1209.44 732.591C1206.22 823.201 1205.4 894.593 1205.23 914.716C999.077 913.169 816.16 912.7 816.16 912.7C816.16 912.7 724.223 943.128 698.375 959.486C672.527 975.847 725.203 971.267 725.203 971.267L811.909 947.055C811.909 947.055 818.877 947.055 831.463 947.063C820.566 958.389 798.622 979.613 777.226 990.489C747.29 1005.7 698.212 1040.06 698.212 1040.06C698.212 1040.06 675.145 1056.25 682.505 1062.14C687.739 1066.33 766.081 1017.73 829.28 978.517L829.281 978.516C848.495 966.596 866.31 955.544 880.244 947.108C892.348 947.123 905.914 947.142 920.586 947.168C919.644 965.342 919.901 1066.56 1043.23 1066.56C1157.08 1066.56 1168.95 976.658 1169.85 947.907C1412.68 948.977 1699.19 951.395 1754.19 956.869C1823.3 963.747 1896.02 1012.54 1945.7 1045.86C1966.93 1060.1 1983.95 1071.52 1994.67 1075.64C2028.05 1083 2013.81 1050.12 2013.81 1050.12C2009.56 1035.8 1836.15 937.238 1772.68 926.114ZM1906.84 1056.72C1906.84 1056.72 1881.31 1162.73 1608.44 1184.33C1164.78 1205.92 823.204 1090.1 823.204 1090.1C805.7 1078.81 793.594 1104.82 810.772 1110.22C811.228 1110.36 811.7 1110.51 812.193 1110.67L812.269 1110.69C828.919 1115.98 870.946 1129.32 1196.88 1182.55C1200.3 1247.16 1213.03 1511.37 1199.3 1628.07C1183.6 1761.56 1230.52 2169.88 1230.52 2169.88C1230.52 2169.88 1233.66 2039.34 1238.89 1968.66C1240.56 1946.07 1243.98 1920.66 1247.59 1893.78C1255.28 1836.57 1263.86 1772.64 1258.52 1714.77C1251.52 1638.93 1292.73 1277.02 1301.76 1199.36C1720.28 1263.6 1919.69 1122.2 1931.37 1085.68C1943.15 1048.87 1906.84 1056.72 1906.84 1056.72Z" fill="white"/>
<path d="M38.7974 1746V1353.59H125.26V1746H38.7974ZM396.786 1505.46L345.795 1555.89C333.602 1540.93 317.529 1533.17 297.576 1533.17C283.719 1533.17 267.092 1539.27 267.092 1555.34C267.092 1595.24 407.317 1561.43 407.317 1663.97C407.317 1732.7 340.807 1752.65 283.165 1752.65C245.476 1752.65 203.907 1743.23 177.303 1716.07L227.74 1660.09C243.259 1678.94 261.549 1689.47 286.491 1689.47C305.335 1689.47 324.18 1684.48 324.18 1670.07C324.18 1626.84 183.954 1663.42 183.954 1560.88C183.954 1497.7 240.488 1469.98 297.021 1469.98C332.493 1469.98 371.845 1478.85 396.786 1505.46ZM618.98 1746V1712.19H617.871C599.581 1741.01 566.326 1752.65 532.517 1752.65C482.08 1752.65 436.632 1723.83 436.632 1669.51C436.632 1576.4 549.698 1574.74 618.98 1574.74C618.98 1545.36 594.593 1526.52 565.772 1526.52C538.613 1526.52 515.889 1538.71 498.153 1558.66L453.813 1513.22C484.297 1484.39 528.637 1469.98 572.423 1469.98C669.416 1469.98 695.466 1519.31 695.466 1609.1V1746H618.98ZM618.98 1627.94H598.472C572.977 1627.94 516.443 1630.16 516.443 1666.74C516.443 1686.7 537.505 1696.12 555.795 1696.12C588.496 1696.12 618.98 1678.94 618.98 1645.68V1627.94ZM755.385 1746V1326.99H838.523V1505.46H839.631C858.476 1479.41 890.622 1469.98 924.986 1469.98C1001.47 1469.98 1048.03 1538.71 1048.03 1613.53C1048.03 1695.01 995.375 1752.65 915.563 1752.65C877.875 1752.65 845.728 1729.93 832.98 1710.53H831.872V1746H755.385ZM831.872 1611.32C831.872 1651.78 856.813 1679.49 898.382 1679.49C939.95 1679.49 964.892 1651.78 964.892 1611.32C964.892 1570.86 939.95 1543.14 898.382 1543.14C856.813 1543.14 831.872 1570.86 831.872 1611.32ZM1293.5 1656.77L1351.69 1699.44C1325.09 1733.25 1281.3 1752.65 1238.07 1752.65C1154.93 1752.65 1088.42 1697.23 1088.42 1611.32C1088.42 1525.41 1154.93 1469.98 1238.07 1469.98C1315.67 1469.98 1364.44 1525.41 1364.44 1611.32V1637.37H1171.56C1178.21 1668.96 1202.05 1689.47 1234.19 1689.47C1261.35 1689.47 1279.64 1675.61 1293.5 1656.77ZM1171.56 1580.83H1281.3C1281.86 1553.12 1260.24 1529.84 1230.31 1529.84C1193.73 1529.84 1173.78 1554.78 1171.56 1580.83ZM1415 1746V1326.99H1498.14V1583.05L1590.14 1476.63H1692.12L1585.15 1598.02L1694.89 1746H1590.14L1499.24 1609.65H1498.14V1746H1415Z" fill="white"/>
<path d="M1713 1611.32C1713 1525.41 1779.51 1469.98 1862.65 1469.98C1945.78 1469.98 2012.29 1525.41 2012.29 1611.32C2012.29 1697.23 1945.78 1752.65 1862.65 1752.65C1779.51 1752.65 1713 1697.23 1713 1611.32ZM1796.14 1611.32C1796.14 1651.78 1821.08 1679.49 1862.65 1679.49C1904.21 1679.49 1929.16 1651.78 1929.16 1611.32C1929.16 1570.86 1904.21 1543.14 1862.65 1543.14C1821.08 1543.14 1796.14 1570.86 1796.14 1611.32ZM2090.08 1746V1543.14H2035.21V1476.63H2090.08V1428.97C2090.08 1370.22 2105.05 1320.34 2195.39 1320.34C2212.02 1320.34 2228.64 1321.45 2244.16 1325.32L2240.28 1395.71C2230.86 1392.39 2223.1 1390.17 2213.13 1390.17C2186.52 1390.17 2173.22 1398.49 2173.22 1433.96V1476.63H2234.74V1543.14H2173.22V1746H2090.08ZM2285.48 1746V1543.14H2230.61V1476.63H2285.48V1428.97C2285.48 1370.22 2300.44 1320.34 2390.78 1320.34C2407.41 1320.34 2424.04 1321.45 2439.56 1325.32L2435.68 1395.71C2426.26 1392.39 2418.5 1390.17 2408.52 1390.17C2381.92 1390.17 2368.61 1398.49 2368.61 1433.96V1476.63H2430.14V1543.14H2368.61V1746H2285.48Z" fill="#00FF1E"/>
</svg>
